<svg width="103" height="30" viewBox="0 0 103 30" fill="none" xmlns="http://www.w3.org/2000/svg">
<path fill-rule="evenodd" clip-rule="evenodd" d="M13.8364 13.3072C13.433 12.9599 12.8338 12.7761 12.0824 12.7766C11.5092 12.777 10.979 12.8238 10.5472 12.8803L10.5404 2.3057C10.6823 2.27956 10.8886 2.24687 11.1594 2.20762C11.4431 2.15534 11.7269 2.12911 12.0106 2.12891C12.2943 2.12871 12.5459 2.14807 12.7651 2.18697C12.9973 2.22587 13.1908 2.30386 13.3457 2.42093C13.5005 2.538 13.6167 2.70067 13.6942 2.90893C13.7846 3.10417 13.8299 3.36454 13.8302 3.69003L13.8364 13.3072ZM0.665647 2.27504C0.394854 2.31251 0.197919 2.34993 0.0748444 2.38729L0.0812497 12.855C0.0816424 13.4639 0.352781 13.9608 0.894664 14.3456C1.28877 14.6312 1.769 14.8669 2.33538 15.0529C2.90176 15.2514 3.59118 15.3503 4.40363 15.3497C5.15454 15.3492 5.83767 15.2493 6.45304 15.0501C7.08071 14.8384 7.60983 14.5336 8.04042 14.1356C8.47101 13.7377 8.80306 13.2404 9.03656 12.6437C9.28237 12.0346 9.40501 11.3262 9.40449 10.5185C9.40399 9.73559 9.2866 9.04599 9.05233 8.44967C8.81805 7.85335 8.49767 7.3565 8.09119 6.95913C7.6847 6.54933 7.21672 6.23899 6.68726 6.0281C6.1578 5.81722 5.59763 5.71198 5.00676 5.71239C4.67439 5.71262 4.36666 5.73769 4.08356 5.78759C3.81278 5.83749 3.52355 5.92467 3.21589 6.04916L3.21471 3.68992C3.21451 3.37925 3.17742 3.13074 3.10344 2.94439C3.02945 2.74562 2.91856 2.59036 2.77077 2.47862C2.62298 2.36688 2.43828 2.29245 2.21668 2.25532C2.00739 2.21819 1.76733 2.19972 1.49652 2.19991C1.21339 2.2001 0.936433 2.22515 0.665647 2.27504ZM5.71265 12.2732C5.40515 12.6587 4.96828 12.8516 4.40202 12.852C4.1189 12.8522 3.87884 12.8275 3.68185 12.7779C3.49716 12.7159 3.33708 12.6415 3.20162 12.5546L3.19899 8.49102C3.4082 8.39146 3.59895 8.31677 3.77126 8.26694C3.95588 8.21711 4.17128 8.1921 4.41748 8.19193C4.95912 8.19156 5.39009 8.38387 5.71039 8.76888C6.0307 9.15388 6.1911 9.73783 6.19161 10.5207C6.19211 11.2912 6.03245 11.8753 5.71265 12.2732ZM31.3977 15.4201C30.6367 15.4206 29.9273 15.317 29.2694 15.1091C28.6244 14.8882 28.0567 14.5631 27.5663 14.1338C27.0888 13.7045 26.708 13.1644 26.4238 12.5136C26.1525 11.8628 26.0166 11.1012 26.0161 10.2289C26.0155 9.36958 26.1505 8.63386 26.4209 8.02173C26.7042 7.39658 27.0715 6.88855 27.5227 6.49764C27.9738 6.0937 28.4895 5.8004 29.0698 5.61772C29.6501 5.42201 30.2433 5.32395 30.8495 5.32353C31.533 5.32305 32.1522 5.42678 32.7069 5.63472C33.2745 5.84264 33.7584 6.12874 34.1584 6.49302C34.5714 6.85729 34.8876 7.29324 35.1072 7.80086C35.3397 8.30848 35.4561 8.86175 35.4565 9.46066C35.4568 9.90334 35.3345 10.2419 35.0896 10.4765C34.8447 10.711 34.503 10.861 34.0645 10.9264L29.2865 11.6523C29.4286 12.0819 29.719 12.4072 30.1577 12.6282C30.5964 12.8362 31.0994 12.94 31.6669 12.9396C32.1957 12.9392 32.6922 12.8738 33.1565 12.7433C33.6336 12.5997 34.0204 12.4367 34.3169 12.2542C34.5233 12.3843 34.6976 12.5664 34.8396 12.8007C34.9816 13.035 35.0527 13.2823 35.0529 13.5427C35.0533 14.1286 34.7827 14.5649 34.2412 14.8518C33.8286 15.0734 33.3644 15.2234 32.8486 15.3019C32.3327 15.3804 31.8491 15.4198 31.3977 15.4201ZM30.851 7.74523C30.5415 7.74545 30.2707 7.79772 30.0386 7.90204C29.8194 8.00635 29.6389 8.14318 29.4972 8.31254C29.3554 8.46888 29.2459 8.65124 29.1686 8.85961C29.1043 9.05495 29.0657 9.25679 29.0529 9.46512L32.3608 8.91598C32.3219 8.65561 32.1799 8.39531 31.9347 8.13508C31.6894 7.87485 31.3282 7.7449 30.851 7.74523ZM15.3973 5.76369C15.5262 5.72454 15.7261 5.68535 15.9969 5.6461C16.2806 5.60684 16.5708 5.58711 16.8675 5.5869C17.1512 5.58671 17.4027 5.60606 17.622 5.64497C17.8542 5.68387 18.0477 5.76185 18.2025 5.87892C18.3574 5.996 18.4736 6.15866 18.5511 6.36693C18.6415 6.56216 18.6868 6.82253 18.687 7.14803L18.6897 11.347C18.6901 11.8808 18.8193 12.2648 19.0774 12.4989C19.3355 12.7201 19.7096 12.8305 20.1997 12.8302C20.4963 12.83 20.7349 12.8038 20.9155 12.7516C20.9668 12.7377 21.0149 12.7238 21.0599 12.71C20.6677 13.1575 20.4718 13.6999 20.4722 14.3372C20.4725 14.7328 20.5483 15.0917 20.6997 15.4139C20.5305 15.4229 20.3579 15.4275 20.182 15.4277C19.4856 15.4281 18.8406 15.3505 18.2472 15.1946C17.6668 15.0388 17.1636 14.7983 16.7378 14.4731C16.3119 14.1479 15.9828 13.7315 15.7503 13.2239C15.5178 12.7032 15.4013 12.0784 15.4009 11.3492L15.3973 5.76369ZM22.9237 11.9391C22.3031 11.9396 21.7819 12.1029 21.3602 12.429L21.3559 5.75955C21.4849 5.7204 21.6847 5.6812 21.9556 5.64196C22.2393 5.6027 22.5295 5.58297 22.8261 5.58276C23.1099 5.58256 23.3614 5.60192 23.5807 5.64083C23.8128 5.67972 24.0063 5.75771 24.1612 5.87478C24.316 5.99185 24.4322 6.15452 24.5097 6.36278C24.6001 6.55802 24.6455 6.81839 24.6457 7.14389L24.6492 12.5871C24.214 12.1546 23.6389 11.9386 22.9237 11.9391Z" fill="#03193A"/>
<path fill-rule="evenodd" clip-rule="evenodd" d="M21.6322 13.1249C21.31 13.4636 21.149 13.8804 21.1494 14.3751C21.1497 14.8699 21.3112 15.2864 21.6338 15.6247C21.9694 15.963 22.408 16.132 22.9497 16.1316C23.4914 16.1312 23.9234 15.9617 24.2456 15.6229C24.5807 15.2842 24.7481 14.8674 24.7478 14.3727C24.7474 13.8779 24.5795 13.4614 24.244 13.1231C23.9213 12.7848 23.4891 12.6158 22.9474 12.6162C22.4057 12.6166 21.9673 12.7861 21.6322 13.1249ZM23.9625 26.5794C24.2462 26.5401 24.459 26.5074 24.6008 26.4813L24.5957 18.5326C24.5955 18.2071 24.5502 17.9468 24.4598 17.7515C24.3822 17.5433 24.2661 17.3806 24.1112 17.2635C23.9564 17.1464 23.7628 17.0685 23.5307 17.0296C23.3114 16.9907 23.0599 16.9713 22.7761 16.9715C22.4924 16.9717 22.2087 16.9979 21.9249 17.0502C21.6541 17.0894 21.4478 17.1221 21.3059 17.1483L21.3111 25.0969C21.3113 25.4224 21.3501 25.6893 21.4277 25.8976C21.5181 26.0928 21.6407 26.249 21.7956 26.366C21.9504 26.4831 22.1375 26.5611 22.3567 26.6C22.5889 26.6389 22.8469 26.6583 23.1306 26.6581C23.4144 26.6579 23.6917 26.6316 23.9625 26.5794ZM19.1654 26.6022C19.4491 26.563 19.6554 26.5238 19.7844 26.4846L19.7805 20.5671C19.7797 19.2911 19.418 18.3344 18.6953 17.6969C17.9855 17.0464 16.9922 16.7216 15.7153 16.7225C15.3026 16.7228 14.9222 16.7686 14.574 16.86C14.2387 16.9383 13.9873 17.0101 13.8196 17.0753L13.8184 15.1614C13.8182 14.8359 13.7729 14.5755 13.6825 14.3803C13.605 14.172 13.4888 14.0094 13.3339 13.8923C13.1791 13.7752 12.9856 13.6972 12.7534 13.6583C12.5341 13.6194 12.2826 13.6001 11.9988 13.6003C11.7151 13.6005 11.4314 13.6267 11.1477 13.679C10.8768 13.7182 10.6705 13.7509 10.5286 13.7771L10.536 25.1044C10.5362 25.4299 10.5751 25.6968 10.6526 25.905C10.743 26.1003 10.8656 26.2564 11.0205 26.3735C11.1753 26.4906 11.3624 26.5686 11.5817 26.6075C11.8138 26.6464 12.0718 26.6657 12.3555 26.6655C12.6522 26.6653 12.9359 26.6456 13.2067 26.6063C13.4905 26.5671 13.6968 26.5279 13.8257 26.4887L13.8213 19.6533C13.9631 19.562 14.1501 19.4838 14.3822 19.4185C14.6143 19.3533 14.8593 19.3206 15.1173 19.3204C15.5042 19.3201 15.8267 19.4306 16.0848 19.6517C16.3558 19.8598 16.4915 20.2308 16.4918 20.7646L16.4946 25.1003C16.4948 25.4258 16.5337 25.6927 16.6112 25.9009C16.7016 26.0962 16.8243 26.2523 16.9791 26.3694C17.1339 26.4865 17.321 26.5644 17.5403 26.6034C17.7725 26.6423 18.0304 26.6616 18.3142 26.6614C18.6108 26.6612 18.8946 26.6415 19.1654 26.6022ZM30.4221 16.7123C31.196 16.7118 31.9118 16.8154 32.5697 17.0233C33.2405 17.2181 33.8147 17.5237 34.2922 17.94C34.7696 18.3563 35.144 18.8834 35.4153 19.5212C35.6865 20.1459 35.8224 20.8945 35.823 21.7668C35.8235 22.6001 35.7079 23.3293 35.4762 23.9544C35.2444 24.5795 34.9159 25.1071 34.4905 25.537C34.0652 25.9539 33.5495 26.2668 32.9434 26.4755C32.3503 26.6842 31.6861 26.7889 30.951 26.7894C30.3964 26.7898 29.8804 26.7055 29.4031 26.5366L29.4052 29.7785C29.2763 29.8177 29.0699 29.8569 28.7862 29.8961C28.5025 29.9484 28.2123 29.9746 27.9157 29.9748C27.6319 29.975 27.374 29.9557 27.1418 29.9168C26.9225 29.8779 26.7355 29.7999 26.5806 29.6828C26.4258 29.5657 26.3096 29.4031 26.2321 29.1948C26.1546 28.9996 26.1157 28.7392 26.1155 28.4137L26.1094 19.0394C26.1092 18.6878 26.1799 18.4013 26.3217 18.1799C26.4763 17.9584 26.6825 17.7565 26.9403 17.574C27.34 17.3134 27.8364 17.1047 28.4296 16.9481C29.0228 16.7914 29.6869 16.7128 30.4221 16.7123ZM30.4656 24.1727C31.7941 24.1718 32.4578 23.3706 32.4567 21.7691C32.4562 20.9359 32.2881 20.3175 31.9525 19.9142C31.6298 19.5108 31.1589 19.3093 30.5399 19.3097C30.2948 19.3099 30.0756 19.3426 29.8822 19.4078C29.6887 19.46 29.5211 19.5252 29.3793 19.6035L29.3821 23.9C29.5369 23.978 29.7046 24.043 29.8852 24.095C30.0658 24.1469 30.2593 24.1728 30.4656 24.1727ZM6.78778 19.2942C6.46824 19.2944 5.39608 19.3462 5.10217 19.4496C4.82104 19.5531 4.42467 19.7081 4.20751 19.9147C4.00313 20.1083 3.76352 20.3536 3.63589 20.6505C3.50827 20.9473 3.44459 21.2957 3.44485 21.6957C3.44536 22.4957 3.74304 23.0956 4.19065 23.4952C4.65105 23.8949 6.11983 24.0945 6.77169 24.0941C7.15514 24.0938 7.48743 24.0484 7.76857 23.9579C8.04971 23.8674 8.29889 23.7704 8.51611 23.667C8.77185 23.8475 8.96371 24.0474 9.09167 24.2666C9.21962 24.473 9.28369 24.7246 9.28388 25.0213C9.28422 25.5503 9.03524 25.9634 8.53695 26.2605C8.03866 26.5447 7.34854 26.6871 5.70118 26.6878C4.89594 26.6883 3.94647 26.5727 3.29446 26.3409C2.64244 26.0962 2.00622 25.7611 1.53302 25.3356C1.0726 24.8973 0.640773 24.3749 0.38475 23.7687C0.128727 23.1624 0.000475972 22.4916 1.68455e-06 21.7561C-0.00054749 20.9045 0.133179 20.1625 0.401185 19.5301C0.681964 18.8847 1.1323 18.3554 1.60495 17.9422C2.0776 17.529 2.69424 17.2189 3.30762 17.0121C3.93378 16.8052 4.81281 16.7015 5.50302 16.701C7.18872 16.7004 7.89821 16.8676 8.39691 17.2028C8.89561 17.5379 9.14512 17.97 9.14546 18.499C9.14562 18.7441 9.08826 18.9764 8.97336 19.1959C8.85846 19.4024 8.72438 19.5831 8.5711 19.7381C8.35374 19.635 8.09166 19.5384 7.78484 19.4483C7.47801 19.3453 7.14566 19.2939 6.78778 19.2942Z" fill="#3555FF"/>
<path fill-rule="evenodd" clip-rule="evenodd" d="M36.5725 3.89215C36.5722 3.88471 36.5721 3.87735 36.5715 3.86984C36.5722 3.86684 36.5714 3.86365 36.5711 3.86034C36.553 3.53584 36.4241 3.22889 36.2077 2.99526L36.1855 2.97202L36.1837 2.9715C36.1783 2.96709 36.1728 2.96258 36.167 2.95862C36.141 2.94081 36.1113 2.92991 36.0804 2.92689C36.0494 2.92385 36.0182 2.9288 35.9896 2.94126L35.9699 2.95103C35.635 3.1182 35.3286 3.34151 35.0628 3.61213C34.7899 3.44855 34.5401 3.24644 34.3202 3.01149C34.2514 2.9379 34.1853 2.86127 34.1231 2.78017L34.121 2.7796L34.1187 2.77453C33.9357 2.40234 33.8173 1.99921 33.7691 1.58386C33.8811 1.47046 33.9809 1.3446 34.0667 1.2085C34.1648 1.05357 34.2435 0.886115 34.3008 0.710274C34.3013 0.709127 34.3016 0.707933 34.3017 0.706711C34.3064 0.69276 34.3109 0.678734 34.3151 0.664636C34.3227 0.633314 34.3256 0.600936 34.3237 0.56868C34.3194 0.490375 34.2877 0.416439 34.2347 0.360867C34.2212 0.346489 34.2063 0.333574 34.1903 0.322317C34.1443 0.30328 34.098 0.285336 34.0513 0.268141C33.99 0.244728 33.9281 0.222911 33.8656 0.202689C33.865 0.202224 33.8643 0.202016 33.8635 0.202102C33.7043 0.149129 33.5419 0.103692 33.3764 0.0657904L33.3743 0.0652017C33.3095 0.050396 33.2443 0.0367524 33.1787 0.0242709C33.132 0.0156085 33.0851 0.0074946 33.0384 0C33.0185 0.00138768 32.9988 0.00482052 32.9795 0.0102489C32.9069 0.0305193 32.8438 0.0779909 32.8025 0.14363C32.7854 0.170547 32.7724 0.200101 32.764 0.231218C32.7605 0.244915 32.757 0.258612 32.7557 0.272348C32.7557 0.272348 32.7557 0.27235 32.7552 0.274269C32.7205 0.457899 32.7082 0.6454 32.7189 0.832252C32.728 0.994685 32.7541 1.1556 32.7968 1.3121C32.5563 1.64658 32.2609 1.93384 31.9242 2.1605L31.9198 2.16338L31.9177 2.16279C31.8241 2.19884 31.7315 2.23106 31.6367 2.25857C31.3339 2.34737 31.0208 2.39206 30.7063 2.39137C30.6056 2.01808 30.4469 1.66453 30.2367 1.34479C30.234 1.3402 30.2314 1.33596 30.2285 1.33192C30.2099 1.30428 30.1848 1.28207 30.1557 1.26739C30.1265 1.25271 30.0943 1.24604 30.0619 1.24803L30.0464 1.24954L30.0437 1.24881C30.032 1.2517 30.0205 1.25493 30.0089 1.25845C30.0068 1.25891 30.0048 1.25961 30.0028 1.26053C29.7902 1.32498 29.5969 1.44517 29.4414 1.60965C29.3812 1.67362 29.3271 1.74354 29.2798 1.81843C29.2791 1.82145 29.2765 1.82394 29.2749 1.82673C29.2744 1.82766 29.2742 1.8287 29.2741 1.82975C29.2707 1.83527 29.2675 1.84022 29.2644 1.84582C29.2596 1.85685 29.2574 1.86895 29.2582 1.88107C29.2582 1.8833 29.2585 1.88556 29.259 1.88776C29.2601 1.89307 29.2616 1.89846 29.263 1.90385C29.2776 1.96079 29.2945 2.0171 29.3136 2.07274C29.3894 2.2998 29.5003 2.51235 29.6419 2.70194C29.7232 2.80871 29.8137 2.90737 29.9124 2.99666C29.9843 3.54303 29.9336 4.0994 29.7642 4.62177C29.7635 4.6241 29.7629 4.62649 29.7624 4.6289C29.7611 4.63383 29.7607 4.63897 29.761 4.64407C29.762 4.65632 29.7676 4.66768 29.7765 4.67567C29.7855 4.68368 29.7971 4.68767 29.8088 4.68681L29.8112 4.68746L29.8187 4.68574C30.0868 4.62419 30.3589 4.58375 30.6328 4.56473C30.6498 4.56303 30.6666 4.56215 30.6835 4.561C31.8876 4.48527 33.082 4.82546 34.0825 5.52909C34.3116 5.69007 34.5289 5.86865 34.7327 6.06336L34.7385 6.06793C34.7483 6.07481 34.7603 6.07741 34.7718 6.07516C34.7834 6.0729 34.7937 6.06598 34.8004 6.05589C34.8031 6.05174 34.8051 6.04716 34.8064 6.0423C34.8071 6.03997 34.8078 6.03758 34.8082 6.03517C34.9116 5.49436 35.134 4.98604 35.4577 4.55036C35.5861 4.52471 35.7118 4.48644 35.8332 4.43607C36.0472 4.34763 36.2457 4.22307 36.421 4.06733C36.4643 4.02895 36.5058 3.98888 36.5461 3.947C36.5474 3.94582 36.5487 3.94452 36.5499 3.94309L36.5561 3.9363C36.5564 3.93582 36.5566 3.93525 36.5565 3.93466C36.5581 3.93284 36.5595 3.93087 36.5608 3.92883C36.5676 3.91784 36.5717 3.9052 36.5725 3.89215ZM33.3849 1.04387L33.3856 1.04114C33.3856 1.04114 33.3855 1.04284 33.3849 1.04387Z" fill="#FF0960"/>
<path opacity="0.4" fill-rule="evenodd" clip-rule="evenodd" d="M45.529 6L45.529 24L44.7826 24L44.7826 6L45.529 6Z" fill="#959595"/>
<path d="M56.4291 16.6903L55.0498 17.6668C55.2901 18.1708 55.614 18.638 56.0216 19.0685C56.4395 19.499 56.9202 19.8455 57.4636 20.108C58.0174 20.36 58.613 20.486 59.2504 20.486C59.7206 20.486 60.1699 20.4073 60.5983 20.2498C61.0372 20.1028 61.4291 19.8928 61.7739 19.6198C62.1187 19.3363 62.3904 18.9898 62.5889 18.5803C62.7979 18.1708 62.9024 17.7088 62.9024 17.1943C62.9024 16.7113 62.8188 16.2913 62.6516 15.9343C62.4844 15.5668 62.265 15.2518 61.9933 14.9893C61.7321 14.7268 61.4343 14.5063 61.0999 14.3278C60.776 14.1493 60.4468 14.0023 60.1124 13.8868C59.5273 13.6768 59.0518 13.472 58.6861 13.2725C58.3204 13.073 58.0487 12.863 57.8711 12.6425C57.7039 12.4115 57.6203 12.1543 57.6203 11.8708C57.6203 11.5558 57.7405 11.2828 57.9808 11.0518C58.2211 10.8103 58.5973 10.6895 59.1093 10.6895C59.475 10.6895 59.7937 10.763 60.0654 10.91C60.3476 11.0465 60.5931 11.2355 60.8021 11.477C61.0111 11.708 61.1887 11.96 61.335 12.233L62.824 11.3825C62.6464 10.994 62.3904 10.6213 62.056 10.2643C61.7216 9.90727 61.3141 9.61327 60.8334 9.38227C60.3528 9.14077 59.7885 9.02002 59.1407 9.02002C58.4824 9.02002 57.892 9.14602 57.3695 9.39802C56.8575 9.65002 56.45 10.0018 56.1469 10.4533C55.8439 10.8943 55.6924 11.4088 55.6924 11.9968C55.6924 12.5113 55.7917 12.9523 55.9902 13.3198C56.1887 13.6768 56.4395 13.9813 56.7426 14.2333C57.0456 14.4748 57.3643 14.6795 57.6987 14.8475C58.033 15.005 58.3361 15.131 58.6078 15.2255C59.0675 15.3935 59.475 15.5668 59.8303 15.7453C60.1856 15.9133 60.4573 16.1233 60.6454 16.3753C60.8439 16.6168 60.9432 16.937 60.9432 17.336C60.9432 17.777 60.7864 18.134 60.4729 18.407C60.1595 18.68 59.7519 18.8165 59.2504 18.8165C58.8429 18.8165 58.4667 18.7273 58.1219 18.5488C57.7875 18.3703 57.4792 18.1235 57.1971 17.8085C56.9254 17.4935 56.6694 17.1208 56.4291 16.6903Z" fill="#111315"/>
<path d="M64.7849 9.22477V20.2498H66.6344V9.22477H64.7849ZM65.882 10.8628H68.0921C68.7295 10.8628 69.2415 11.015 69.6281 11.3195C70.0147 11.6135 70.208 12.0545 70.208 12.6425C70.208 13.2305 70.0147 13.6768 69.6281 13.9813C69.2415 14.2858 68.7295 14.438 68.0921 14.438H65.882V16.076H68.0921C68.8967 16.076 69.5915 15.9395 70.1767 15.6665C70.7618 15.383 71.2164 14.984 71.5403 14.4695C71.8747 13.955 72.0419 13.346 72.0419 12.6425C72.0419 11.939 71.8747 11.3353 71.5403 10.8313C71.2164 10.3168 70.7618 9.92302 70.1767 9.65002C69.5915 9.36652 68.8967 9.22477 68.0921 9.22477H65.882V10.8628Z" fill="#111315"/>
<path d="M75.1786 14.7373C75.1786 13.9813 75.3406 13.3093 75.6645 12.7213C75.9884 12.1228 76.4273 11.6555 76.9811 11.3195C77.5454 10.9835 78.188 10.8155 78.909 10.8155C79.6509 10.8155 80.2988 10.9835 80.8526 11.3195C81.4168 11.6555 81.8557 12.1228 82.1692 12.7213C82.4827 13.3093 82.6394 13.9813 82.6394 14.7373C82.6394 15.4933 82.4774 16.1653 82.1535 16.7533C81.84 17.3413 81.4012 17.8085 80.8369 18.155C80.2831 18.491 79.6405 18.659 78.909 18.659C78.188 18.659 77.5454 18.491 76.9811 18.155C76.4273 17.8085 75.9884 17.3413 75.6645 16.7533C75.3406 16.1653 75.1786 15.4933 75.1786 14.7373ZM73.2194 14.7373C73.2194 15.5563 73.3605 16.3175 73.6426 17.021C73.9247 17.7245 74.3218 18.3335 74.8338 18.848C75.3458 19.3625 75.9466 19.7668 76.6363 20.0608C77.3364 20.3443 78.094 20.486 78.909 20.486C79.745 20.486 80.5078 20.3443 81.1974 20.0608C81.8871 19.7668 82.4879 19.3625 82.9999 18.848C83.5119 18.3335 83.909 17.7245 84.1911 17.021C84.4733 16.3175 84.6143 15.5563 84.6143 14.7373C84.6143 13.9078 84.4733 13.1465 84.1911 12.4535C83.909 11.7605 83.5067 11.162 82.9842 10.658C82.4722 10.1435 81.8714 9.74452 81.1817 9.46102C80.4921 9.16702 79.7345 9.02002 78.909 9.02002C78.1044 9.02002 77.3521 9.16702 76.652 9.46102C75.9623 9.74452 75.3563 10.1435 74.8338 10.658C74.3218 11.162 73.9247 11.7605 73.6426 12.4535C73.3605 13.1465 73.2194 13.9078 73.2194 14.7373Z" fill="#111315"/>
<path d="M88.701 14.9893L92.1807 20.2498H94.422L90.6916 14.9893H88.701ZM86.4283 9.22477V20.2498H88.2779V9.22477H86.4283ZM87.5255 10.8313H89.7355C90.1639 10.8313 90.5349 10.9048 90.8484 11.0518C91.1619 11.1988 91.4074 11.4088 91.5851 11.6818C91.7627 11.9548 91.8515 12.2908 91.8515 12.6898C91.8515 13.0783 91.7627 13.4143 91.5851 13.6978C91.4074 13.9708 91.1619 14.1808 90.8484 14.3278C90.5349 14.4643 90.1639 14.5325 89.7355 14.5325H87.5255V16.076H89.8139C90.6185 16.076 91.3134 15.9343 91.8985 15.6508C92.4837 15.3673 92.9382 14.9683 93.2622 14.4538C93.5965 13.9393 93.7637 13.3355 93.7637 12.6425C93.7637 11.9495 93.5965 11.351 93.2622 10.847C92.9382 10.3325 92.4837 9.93352 91.8985 9.65002C91.3134 9.36652 90.6185 9.22477 89.8139 9.22477H87.5255V10.8313Z" fill="#111315"/>
<path d="M94.6529 10.9415H97.5525V20.2498H99.402V10.9415H102.302V9.22477H94.6529V10.9415Z" fill="#111315"/>
</svg>
