<svg width="18" height="19" viewBox="0 0 18 19" fill="none" xmlns="http://www.w3.org/2000/svg">
<path d="M2.0918 17.782L2.43229 17.1137L2.0918 17.782ZM1.21799 16.908L0.549732 17.2485H0.549732L1.21799 16.908ZM16.7822 16.908L16.114 16.5675L16.7822 16.908ZM15.9078 17.782L15.5673 17.1137L15.9078 17.782ZM15.9078 2.21799L16.2483 1.54973L15.9078 2.21799ZM16.7822 3.09204L16.114 3.43253L16.7822 3.09204ZM2.0918 2.21799L2.43229 2.88624L2.0918 2.21799ZM1.21799 3.09204L1.88624 3.43253L1.21799 3.09204ZM13 14V13.25H12.25V14H13ZM13.002 14L13.7518 14.0175L13.7697 13.25H13.002V14ZM13.002 14.002L12.984 14.7518L13.7342 14.7697L13.7517 14.0195L13.002 14.002ZM13 14.002H12.25V14.7342L12.9821 14.7517L13 14.002ZM9 14V13.25H8.25V14H9ZM9.002 14L9.75179 14.0175L9.76973 13.25H9.002V14ZM9.00195 14.002L8.98401 14.7518L9.73422 14.7697L9.75175 14.0195L9.00195 14.002ZM9 14.002H8.25V14.7342L8.98206 14.7517L9 14.002ZM5 14V13.25H4.25V14H5ZM5.002 14L5.7518 14.0175L5.76973 13.25H5.002V14ZM5.00195 14.002L4.98401 14.7518L5.73422 14.7697L5.75175 14.0195L5.00195 14.002ZM5 14.002H4.25V14.7342L4.98206 14.7517L5 14.002ZM13.002 10H13.752V9.25H13.002V10ZM13.002 10.002L12.984 10.7518L13.752 10.7702V10.002H13.002ZM13 10.002H12.25V10.7342L12.9821 10.7517L13 10.002ZM13 10V9.25H12.25V10H13ZM9 10V9.25H8.25V10H9ZM9.002 10L9.75179 10.0175L9.76973 9.25H9.002V10ZM9.00195 10.002L8.98401 10.7518L9.73422 10.7697L9.75175 10.0195L9.00195 10.002ZM9 10.002H8.25V10.7342L8.98206 10.7517L9 10.002ZM5 10V9.25H4.25V10H5ZM5.002 10L5.7518 10.0175L5.76973 9.25H5.002V10ZM5.00195 10.002L4.98401 10.7518L5.73422 10.7697L5.75175 10.0195L5.00195 10.002ZM5 10.002H4.25V10.7342L4.98206 10.7517L5 10.002ZM4.2002 2.75H13.8002V1.25H4.2002V2.75ZM16.25 5.19995V14.8H17.75V5.19995H16.25ZM13.8002 17.25H4.2002V18.75H13.8002V17.25ZM1.75 14.8V5.19995H0.25V14.8H1.75ZM4.2002 17.25C3.62779 17.25 3.24345 17.2494 2.94746 17.2252C2.66018 17.2018 2.52282 17.1599 2.43229 17.1137L1.7513 18.4502C2.0886 18.6221 2.44538 18.6892 2.82532 18.7202C3.19655 18.7506 3.6525 18.75 4.2002 18.75V17.25ZM0.25 14.8C0.25 15.3476 0.249417 15.8035 0.279739 16.1747C0.310775 16.5546 0.377883 16.9112 0.549732 17.2485L1.88624 16.5675C1.8401 16.477 1.79822 16.3397 1.77476 16.0525C1.75058 15.7566 1.75 15.3724 1.75 14.8H0.25ZM2.43229 17.1137C2.1972 16.9939 2.00614 16.8029 1.88624 16.5675L0.549732 17.2485C0.813326 17.7659 1.23374 18.1865 1.7513 18.4502L2.43229 17.1137ZM16.25 14.8C16.25 15.3725 16.2495 15.7567 16.2253 16.0526C16.2019 16.3398 16.1601 16.4771 16.114 16.5675L17.4505 17.2485C17.6224 16.9112 17.6894 16.5544 17.7204 16.1745C17.7506 15.8034 17.75 15.3476 17.75 14.8H16.25ZM13.8002 18.75C14.3479 18.75 14.8037 18.7506 15.1747 18.7202C15.5546 18.6892 15.9111 18.6221 16.2483 18.4502L15.5673 17.1137C15.4767 17.1599 15.3394 17.2018 15.0525 17.2252C14.7567 17.2494 14.3726 17.25 13.8002 17.25V18.75ZM16.114 16.5675C15.9943 16.8024 15.8029 16.9937 15.5673 17.1137L16.2483 18.4502C16.7653 18.1868 17.1866 17.7664 17.4505 17.2485L16.114 16.5675ZM13.8002 2.75C14.3726 2.75 14.7567 2.75058 15.0525 2.77476C15.3395 2.79821 15.4767 2.84008 15.5673 2.88624L16.2483 1.54973C15.9111 1.37791 15.5545 1.31078 15.1747 1.27974C14.8036 1.24942 14.3479 1.25 13.8002 1.25V2.75ZM17.75 5.19995C17.75 4.65235 17.7506 4.1965 17.7204 3.82543C17.6894 3.4456 17.6224 3.08889 17.4505 2.75155L16.114 3.43253C16.1601 3.52302 16.2019 3.66021 16.2253 3.94735C16.2495 4.24326 16.25 4.62745 16.25 5.19995H17.75ZM15.5673 2.88624C15.8028 3.00624 15.9943 3.19764 16.114 3.43253L17.4505 2.75155C17.1867 2.2338 16.7654 1.81323 16.2483 1.54973L15.5673 2.88624ZM4.2002 1.25C3.65251 1.25 3.19656 1.24942 2.82534 1.27974C2.44541 1.31077 2.08861 1.37787 1.7513 1.54973L2.43229 2.88624C2.52281 2.84012 2.66016 2.79822 2.94745 2.77476C3.24344 2.75058 3.62777 2.75 4.2002 2.75V1.25ZM1.75 5.19995C1.75 4.62752 1.75058 4.24333 1.77476 3.94747C1.79822 3.66037 1.84009 3.5231 1.88624 3.43253L0.549732 2.75155C0.377892 3.0888 0.310778 3.44544 0.279739 3.82531C0.249417 4.19643 0.25 4.65228 0.25 5.19995H1.75ZM1.7513 1.54973C1.23366 1.81348 0.813285 2.2343 0.549732 2.75155L1.88624 3.43253C2.00618 3.19714 2.19728 3.00599 2.43229 2.88624L1.7513 1.54973ZM13 14.75H13.002V13.25H13V14.75ZM12.2522 13.9825L12.2522 13.9845L13.7517 14.0195L13.7518 14.0175L12.2522 13.9825ZM13.0199 13.2522L13.0179 13.2522L12.9821 14.7517L12.984 14.7518L13.0199 13.2522ZM13.75 14.002V14H12.25V14.002H13.75ZM9 14.75H9.002V13.25H9V14.75ZM8.2522 13.9825L8.25216 13.9845L9.75175 14.0195L9.75179 14.0175L8.2522 13.9825ZM9.01989 13.2522L9.01794 13.2522L8.98206 14.7517L8.98401 14.7518L9.01989 13.2522ZM9.75 14.002V14H8.25V14.002H9.75ZM5 14.75H5.002V13.25H5V14.75ZM4.2522 13.9825L4.25216 13.9845L5.75175 14.0195L5.7518 14.0175L4.2522 13.9825ZM5.01989 13.2522L5.01794 13.2522L4.98206 14.7517L4.98401 14.7518L5.01989 13.2522ZM5.75 14.002V14H4.25V14.002H5.75ZM12.252 10V10.002H13.752V10H12.252ZM13.0199 9.25221L13.0179 9.25217L12.9821 10.7517L12.984 10.7518L13.0199 9.25221ZM13.75 10.002V10H12.25V10.002H13.75ZM13 10.75H13.002V9.25H13V10.75ZM9 10.75H9.002V9.25H9V10.75ZM8.2522 9.98248L8.25216 9.98448L9.75175 10.0195L9.75179 10.0175L8.2522 9.98248ZM9.01989 9.25221L9.01794 9.25217L8.98206 10.7517L8.98401 10.7518L9.01989 9.25221ZM9.75 10.002V10H8.25V10.002H9.75ZM5 10.75H5.002V9.25H5V10.75ZM4.2522 9.98248L4.25216 9.98448L5.75175 10.0195L5.7518 10.0175L4.2522 9.98248ZM5.01989 9.25221L5.01794 9.25217L4.98206 10.7517L4.98401 10.7518L5.01989 9.25221ZM5.75 10.002V10H4.25V10.002H5.75ZM1 6.75H17V5.25H1V6.75ZM12.25 0V2H13.75V0H12.25ZM4.25 0V2H5.75V0H4.25Z" fill="white"/>
</svg>
