<svg width="38" height="38" viewBox="0 0 38 38" fill="none" xmlns="http://www.w3.org/2000/svg">
<rect width="38" height="38" rx="19" fill="#FF0960" fill-opacity="0.1"/>
<path d="M24.7041 9.67288C24.4826 9.65669 24.2604 9.74001 24.1025 9.90726L13.1426 21.5752C12.8651 21.8707 12.8727 22.3327 13.1592 22.6192L14.043 23.503L10.3301 27.2149C9.84208 27.7034 9.84208 28.4954 10.3301 28.9834C10.8181 29.4719 11.6101 29.4719 12.0986 28.9834L15.8105 25.2705L16.6943 26.1543C16.8403 26.3008 17.0321 26.3741 17.2246 26.3741C17.4091 26.3741 17.5938 26.3069 17.7383 26.1709L29.4053 15.21C29.6293 15.0005 29.7023 14.6752 29.5898 14.3887C28.7133 12.1617 27.1429 10.5917 24.9229 9.72269C24.8516 9.69456 24.7779 9.67828 24.7041 9.67288ZM14.75 10.5C14.015 10.5 13.3247 10.7862 12.8057 11.3057C12.2862 11.8247 12 12.515 12 13.25C12 13.985 12.2862 14.6754 12.8057 15.1944C13.3247 15.7139 14.015 16 14.75 16C15.4845 16 16.1748 15.7139 16.6943 15.1944C17.2138 14.6749 17.5 13.9845 17.5 13.25C17.5 12.515 17.2138 11.8247 16.6943 11.3057C16.1753 10.7862 15.485 10.5 14.75 10.5Z" fill="#FF0960"/>
</svg>
