<svg width="21" height="21" viewBox="0 0 21 21" fill="none" xmlns="http://www.w3.org/2000/svg">
<path d="M15.7041 0.672884C15.4826 0.656688 15.2604 0.740009 15.1026 0.907259L4.14261 12.5752C3.86511 12.8707 3.87271 13.3327 4.15921 13.6192L5.043 14.503L1.33011 18.2149C0.842111 18.7034 0.842111 19.4954 1.33011 19.9834C1.81811 20.4719 2.61017 20.4719 3.09867 19.9834L6.81058 16.2705L7.69437 17.1543C7.84037 17.3008 8.03214 17.3741 8.22464 17.3741C8.40914 17.3741 8.59381 17.3069 8.73831 17.1709L20.4053 6.20999C20.6293 6.00049 20.7024 5.6752 20.5899 5.3887C19.7134 3.1617 18.1429 1.59169 15.9229 0.722688C15.8516 0.694563 15.778 0.678282 15.7041 0.672884ZM5.75003 1.50003C5.01503 1.50003 4.3247 1.7862 3.8057 2.3057C3.2862 2.8247 3.00003 3.51503 3.00003 4.25003C3.00003 4.98503 3.2862 5.67537 3.8057 6.19437C4.3247 6.71387 5.01503 7.00003 5.75003 7.00003C6.48453 7.00003 7.17487 6.71387 7.69437 6.19437C8.21387 5.67487 8.50003 4.98453 8.50003 4.25003C8.50003 3.51503 8.21387 2.8247 7.69437 2.3057C7.17537 1.7862 6.48503 1.50003 5.75003 1.50003Z" fill="white"/>
</svg>
