<svg width="18" height="16" viewBox="0 0 18 16" fill="none" xmlns="http://www.w3.org/2000/svg">
<path fill-rule="evenodd" clip-rule="evenodd" d="M17.7084 10.0033C17.7076 9.98586 17.7074 9.9686 17.706 9.95099C17.7078 9.94395 17.7057 9.93646 17.7051 9.92871C17.662 9.16766 17.355 8.44776 16.8397 7.89982L16.787 7.84531L16.7826 7.8441C16.7699 7.83375 16.7566 7.82317 16.7429 7.81389C16.6811 7.77211 16.6102 7.74655 16.5366 7.73947C16.4629 7.73234 16.3887 7.74395 16.3204 7.77318L16.2736 7.79609C15.4761 8.18816 14.7464 8.71189 14.1135 9.34657C13.4639 8.96293 12.869 8.48891 12.3454 7.93788C12.1815 7.76529 12.0241 7.58558 11.8762 7.39537L11.8712 7.39402L11.8656 7.38215C11.4298 6.50925 11.1479 5.56378 11.0331 4.58966C11.2999 4.32369 11.5375 4.0285 11.7418 3.70932C11.9754 3.34594 12.1627 2.95322 12.2993 2.54081C12.3003 2.53813 12.301 2.53532 12.3015 2.53246C12.3127 2.49974 12.3233 2.46684 12.3332 2.43378C12.3514 2.36032 12.3583 2.28438 12.3536 2.20873C12.3434 2.02508 12.2681 1.85168 12.1419 1.72134C12.1097 1.68762 12.0743 1.65733 12.0362 1.63093C11.9266 1.58629 11.8164 1.5442 11.7051 1.50387C11.5592 1.44896 11.4118 1.3978 11.263 1.35037C11.2616 1.34928 11.2598 1.34879 11.258 1.34899C10.8789 1.22475 10.4922 1.11819 10.0981 1.0293L10.093 1.02792C9.93875 0.993194 9.78351 0.961196 9.6273 0.931923C9.51612 0.911607 9.40459 0.892577 9.29332 0.875C9.24595 0.878255 9.19901 0.886306 9.15316 0.899037C8.98009 0.946577 8.83003 1.05791 8.73157 1.21186C8.69078 1.27498 8.65983 1.3443 8.63987 1.41728C8.6315 1.4494 8.62314 1.48153 8.62013 1.51374C8.62013 1.51374 8.62013 1.51374 8.61895 1.51825C8.53623 1.94892 8.50716 2.38866 8.53244 2.82689C8.55427 3.20785 8.61647 3.58523 8.71797 3.95229C8.14533 4.73674 7.44189 5.41046 6.64034 5.94204L6.62988 5.94881L6.62487 5.94742C6.40198 6.03196 6.18145 6.10754 5.95577 6.17205C5.23472 6.38032 4.48918 6.48513 3.74024 6.48352C3.50044 5.60802 3.12275 4.77883 2.62223 4.02894C2.61566 4.01819 2.60955 4.00823 2.60264 3.99877C2.55828 3.93395 2.49857 3.88186 2.42915 3.84743C2.35974 3.81301 2.28294 3.79736 2.20601 3.80202L2.16892 3.80556L2.16268 3.80386C2.1348 3.81063 2.10738 3.81821 2.0798 3.82645C2.07475 3.82753 2.06984 3.82919 2.06513 3.83134C1.55894 3.9825 1.09877 4.26438 0.728397 4.65013C0.585085 4.80017 0.456265 4.96415 0.343749 5.13979C0.341905 5.14687 0.335695 5.1527 0.331977 5.15925C0.330861 5.16144 0.330234 5.16386 0.330138 5.16633C0.322079 5.17928 0.314361 5.19089 0.306934 5.20403C0.295424 5.22989 0.290324 5.25827 0.292089 5.28669C0.292316 5.29194 0.292965 5.29723 0.294029 5.30238C0.296805 5.31484 0.300205 5.32749 0.303609 5.34013C0.338445 5.47367 0.378586 5.60573 0.424035 5.73623C0.604497 6.26875 0.868619 6.76724 1.20589 7.21189C1.39933 7.4623 1.61495 7.6937 1.84998 7.9031C2.02124 9.18451 1.90044 10.4894 1.49712 11.7145C1.49537 11.72 1.49391 11.7256 1.49277 11.7312C1.48974 11.7428 1.48864 11.7548 1.48952 11.7668C1.49188 11.7955 1.50515 11.8222 1.52645 11.8409C1.54775 11.8597 1.57537 11.8691 1.60334 11.867L1.60896 11.8686L1.62675 11.8645C2.26511 11.7202 2.91311 11.6253 3.56525 11.5807C3.60578 11.5767 3.64584 11.5747 3.68602 11.572C6.553 11.3944 9.39709 12.1922 11.7794 13.8424C12.325 14.22 12.8425 14.6388 13.3276 15.0955L13.3415 15.1062C13.3647 15.1223 13.3932 15.1284 13.4208 15.1231C13.4483 15.1179 13.4728 15.1016 13.4888 15.078C13.4953 15.0682 13.5001 15.0575 13.5031 15.0461C13.5049 15.0406 13.5063 15.035 13.5075 15.0294C13.7536 13.761 14.2831 12.5688 15.054 11.547C15.3596 11.4868 15.6589 11.3971 15.948 11.279C16.4575 11.0716 16.9304 10.7794 17.3476 10.4142C17.4507 10.3241 17.5496 10.2302 17.6454 10.132C17.6488 10.1292 17.6518 10.1261 17.6545 10.1228L17.6694 10.1069C17.6701 10.1057 17.6705 10.1044 17.6704 10.103C17.6741 10.0987 17.6776 10.0941 17.6807 10.0893C17.6968 10.0635 17.7064 10.0339 17.7084 10.0033ZM10.1184 3.32321L10.1201 3.3168C10.1201 3.3168 10.1197 3.32079 10.1184 3.32321Z" fill="#F2F2F2"/>
</svg>
