<svg width="10" height="10" viewBox="0 0 10 10" fill="none" xmlns="http://www.w3.org/2000/svg">
<path d="M9.13536 2.85541C9.11462 2.80464 9.08407 2.75847 9.04545 2.71954L7.27879 0.952872C7.23985 0.914254 7.19368 0.883702 7.14291 0.862967C7.09215 0.842232 7.03779 0.831721 6.98295 0.832038C6.92812 0.831721 6.87376 0.842232 6.82299 0.862967C6.77223 0.883702 6.72605 0.914254 6.68712 0.952872L5.50795 2.13204L0.953787 6.6862C0.91517 6.72514 0.884618 6.77131 0.863882 6.82208C0.843147 6.87284 0.832637 6.9272 0.832954 6.98204L0.832954 8.74871C0.832954 8.85921 0.876852 8.96519 0.954993 9.04333C1.03313 9.12147 1.13911 9.16537 1.24962 9.16537H3.01629C3.07459 9.16854 3.13291 9.15942 3.18746 9.13861C3.24201 9.11779 3.29158 9.08574 3.33295 9.04454L7.86212 4.49037L9.04545 3.33204C9.08229 3.29292 9.15895 3.19665 9.16628 3.1237C9.174 3.04688 9.16775 2.93471 9.13536 2.85541ZM2.84545 8.33204H1.66629V7.15287L5.80379 3.01537L6.98295 4.19454L2.84545 8.33204ZM7.57045 3.60704L6.39129 2.42787L6.98295 1.84037L8.15795 3.01537L7.57045 3.60704Z" fill="#111315"/>
</svg>
