<svg width="38" height="38" viewBox="0 0 38 38" fill="none" xmlns="http://www.w3.org/2000/svg">
<rect width="38" height="38" rx="19" fill="#01AF70" fill-opacity="0.1"/>
<path d="M19 9C13.486 9 9 13.486 9 19C9 24.514 13.486 29 19 29C24.514 29 29 24.514 29 19C29 13.486 24.514 9 19 9ZM15.624 11.1973L18.5 13.2568V15.2607L15.4404 17.4531L13.4072 16.7754L12.3818 13.665C13.2408 12.6 14.3502 11.7475 15.624 11.1973ZM22.376 11.1973C23.6498 11.7475 24.7592 12.6 25.6182 13.665L24.5928 16.7754L22.5596 17.4531L19.5 15.2607V13.2568L22.376 11.1973ZM24.9463 17.7109L27.4736 19.5215C27.3856 20.9754 26.9366 22.3267 26.2109 23.4912L22.9062 23.4717L21.7275 21.9668L22.9062 18.3916L24.9463 17.7109ZM13.0537 17.7119L15.0947 18.3926L16.2891 22.0137L15.1484 23.4707L11.7891 23.4912C11.0636 22.327 10.6145 20.976 10.5264 19.5225L13.0537 17.7119ZM17.1152 22.5801H20.9385L22.0615 24.0156L20.9316 27.2725C20.3104 27.4164 19.6657 27.5 19 27.5C18.3142 27.5 17.651 27.4103 17.0127 27.2578L15.9189 24.1074L17.1152 22.5801Z" fill="#01AF70"/>
</svg>
