<svg width="21" height="21" viewBox="0 0 21 21" fill="none" xmlns="http://www.w3.org/2000/svg">
<g clip-path="url(#clip0_156_13673)">
<path d="M10.5 21C16.299 21 21 16.299 21 10.5C21 4.70101 16.299 0 10.5 0C4.70101 0 0 4.70101 0 10.5C0 16.299 4.70101 21 10.5 21Z" fill="white"/>
<path d="M10.5 0C6.33715 0 2.74025 2.42259 1.04187 5.9348H19.9581C18.2597 2.42259 14.6628 0 10.5 0Z" fill="#FF9811"/>
<path d="M10.5 21.0002C14.6628 21.0002 18.2597 18.5776 19.9581 15.0654H1.04187C2.74025 18.5776 6.33715 21.0002 10.5 21.0002Z" fill="#6DA544"/>
<path d="M10.5 14.152C12.517 14.152 14.1521 12.5168 14.1521 10.4998C14.1521 8.48278 12.517 6.84766 10.5 6.84766C8.48296 6.84766 6.84784 8.48278 6.84784 10.4998C6.84784 12.5168 8.48296 14.152 10.5 14.152Z" fill="#0052B4"/>
<path d="M10.5 12.7825C11.7607 12.7825 12.7826 11.7605 12.7826 10.4999C12.7826 9.23924 11.7607 8.21729 10.5 8.21729C9.23936 8.21729 8.21741 9.23924 8.21741 10.4999C8.21741 11.7605 9.23936 12.7825 10.5 12.7825Z" fill="white"/>
<path d="M10.5 7.68311L11.2042 9.28017L12.9393 9.09146L11.9083 10.4998L12.9393 11.9082L11.2042 11.7195L10.5 13.3165L9.79579 11.7195L8.06067 11.9081L9.09164 10.4998L8.06067 9.09146L9.79579 9.28017L10.5 7.68311Z" fill="#0052B4"/>
</g>
<defs>
<clipPath id="clip0_156_13673">
<rect width="21" height="21" fill="white"/>
</clipPath>
</defs>
</svg>
