<svg width="38" height="38" viewBox="0 0 38 38" fill="none" xmlns="http://www.w3.org/2000/svg">
<rect width="38" height="38" rx="19" fill="#3555FF" fill-opacity="0.1"/>
<path d="M18.2 17.5998C19.2 18.5998 20.4 19.0998 21.8 19.0998L21.9 21.1998C20 21.1998 18.3 20.4998 16.8 19.0998L16.1 18.3998L13.8 20.7998L16 22.8998V28.8998H14V23.6998L12.7 22.4998V24.6998L8.50001 28.9998L7.10001 27.5998L10.7 23.9998L9.50001 20.4998C9.30001 19.8998 9.60001 19.3998 10.1 18.9998L13.4 15.6998C13.8 15.1998 14.3 14.9998 14.8 14.9998C15.3 14.9998 15.6 15.0998 15.9 15.2998L18.2 17.5998ZM31 18.8998H29V15.4998L27.2 14.7998L28.1 19.1998L29.1 24.3998L30 28.7998H27.9L26.1 20.7998L24 22.7998V28.7998H22V21.2998L24.1 19.2998L23.5 16.2998C22.9 16.8998 22.2 17.4998 21.4 17.8998C20.5 17.7998 19.6 17.3998 18.9 16.6998C20.5 16.3998 21.6 15.5998 22.3 14.3998L23.3 12.7998C23.9 11.7998 24.8 11.4998 25.9 11.9998L31 14.1998V18.8998ZM18.4 11.3998C19.5 11.3998 20.4 12.2998 20.4 13.3998C20.4 14.4998 19.5 15.3998 18.4 15.3998C17.3 15.3998 16.4 14.4998 16.4 13.3998C16.4 12.2998 17.3 11.3998 18.4 11.3998ZM23.5 7.2998C24.6 7.2998 25.5 8.1998 25.5 9.2998C25.5 10.3998 24.6 11.2998 23.5 11.2998C22.4 11.2998 21.5 10.3998 21.5 9.2998C21.5 8.1998 22.4 7.2998 23.5 7.2998Z" fill="#3555FF"/>
</svg>
