<svg width="12" height="11" viewBox="0 0 12 11" fill="none" xmlns="http://www.w3.org/2000/svg">
<path d="M1.79683 9.97838C1.80094 10.017 1.80094 10.0558 1.79683 10.0944C1.79656 10.1725 1.78156 10.2498 1.75281 10.3224C1.72112 10.3952 1.67638 10.4616 1.62076 10.5184C1.56478 10.5748 1.49817 10.6197 1.42478 10.6503C1.35594 10.6778 1.28282 10.6927 1.2088 10.6944C1.04987 10.6934 0.897735 10.6302 0.784775 10.5184C0.729239 10.4616 0.684508 10.3952 0.652812 10.3224C0.623973 10.2498 0.609061 10.1725 0.608793 10.0944C0.604686 10.0558 0.604686 10.017 0.608793 9.97838C0.616561 9.93981 0.628615 9.90222 0.644775 9.86633C0.658078 9.82981 0.67549 9.7949 0.696827 9.7624C0.741559 9.69615 0.798613 9.63918 0.864775 9.59436L0.968793 9.53838L1.09281 9.49436C1.16933 9.47838 1.24826 9.47838 1.32477 9.49436L1.43673 9.52633L1.54075 9.58231V9.5824C1.607 9.62713 1.66396 9.68418 1.70878 9.75034C1.73003 9.78293 1.74753 9.81784 1.76075 9.85436C1.77789 9.8941 1.78996 9.9357 1.79683 9.97838ZM1.20879 4.87438C0.994412 4.87438 0.796375 4.98876 0.689152 5.17438C0.582009 5.36001 0.582009 5.58876 0.689152 5.77438C0.796384 5.96001 0.994409 6.07438 1.20879 6.07438C2.27459 6.07545 3.29656 6.49929 4.05016 7.25294C4.80376 8.00659 5.22767 9.02857 5.22872 10.0943C5.22872 10.3087 5.34309 10.5067 5.52872 10.6139C5.71434 10.7211 5.9431 10.7211 6.12872 10.6139C6.31434 10.5067 6.42872 10.3087 6.42872 10.0943C6.42765 8.7102 5.87738 7.383 4.89864 6.40448C3.91999 5.42574 2.59281 4.87545 1.20881 4.8744L1.20879 4.87438ZM1.20879 7.04243C0.994412 7.04243 0.796375 7.15671 0.689152 7.34243C0.582009 7.52805 0.582009 7.75671 0.689152 7.94243C0.796384 8.12805 0.994409 8.24243 1.20879 8.24243C1.69969 8.24341 2.17014 8.43894 2.51718 8.78599C2.86424 9.13305 3.05976 9.6035 3.06074 10.0944C3.06074 10.3088 3.17512 10.5068 3.36074 10.614C3.54646 10.7212 3.77512 10.7212 3.96074 10.614C4.14646 10.5068 4.26074 10.3088 4.26074 10.0944C4.25976 9.28528 3.93779 8.50956 3.36575 7.93742C2.79361 7.36537 2.01788 7.04341 1.20879 7.04243ZM9.20879 0.294312H2.80879C2.22566 0.295383 1.66664 0.527523 1.25432 0.939843C0.841998 1.35216 0.609861 1.91118 0.608786 2.49431V3.49431C0.608786 3.70869 0.723161 3.90672 0.908786 4.01395C1.09441 4.12109 1.32316 4.12109 1.50879 4.01395C1.69441 3.90671 1.80879 3.70869 1.80879 3.49431V2.49431C1.80879 2.22912 1.91414 1.97477 2.10163 1.78716C2.28922 1.59966 2.5436 1.49431 2.80879 1.49431H9.20879C9.47398 1.49431 9.72833 1.59967 9.91594 1.78716C10.1034 1.97475 10.2088 2.22912 10.2088 2.49431V8.49431C10.2088 8.7595 10.1034 9.01385 9.91594 9.20147C9.72835 9.38897 9.47398 9.49431 9.20879 9.49431H7.82879C7.61441 9.49431 7.41638 9.60869 7.30915 9.79431C7.20201 9.97994 7.20201 10.2087 7.30915 10.3943C7.41639 10.5799 7.61441 10.6943 7.82879 10.6943H9.20879C9.79192 10.6932 10.3509 10.4611 10.7633 10.0488C11.1756 9.63646 11.4077 9.07744 11.4088 8.49431V2.49431C11.4077 1.91118 11.1756 1.35216 10.7633 0.939843C10.3509 0.527523 9.79192 0.295386 9.20879 0.294312Z" fill="#01AF70"/>
</svg>
