<svg width="103" height="30" viewBox="0 0 103 30" fill="none" xmlns="http://www.w3.org/2000/svg">
<path fill-rule="evenodd" clip-rule="evenodd" d="M13.8364 13.307C13.433 12.9598 12.8338 12.7759 12.0824 12.7765C11.5092 12.7769 10.979 12.8237 10.5472 12.8802L10.5404 2.30558C10.6823 2.27944 10.8886 2.24674 11.1594 2.2075C11.4431 2.15522 11.7269 2.12898 12.0106 2.12879C12.2944 2.12859 12.5459 2.14794 12.7651 2.18685C12.9973 2.22575 13.1908 2.30373 13.3457 2.42081C13.5005 2.53788 13.6167 2.70055 13.6942 2.90881C13.7846 3.10405 13.83 3.36441 13.8302 3.68991L13.8364 13.307ZM0.665652 2.27492C0.394858 2.31239 0.197924 2.34981 0.0748487 2.38717L0.081254 12.8548C0.0816467 13.4638 0.352785 13.9606 0.894669 14.3455C1.28877 14.631 1.76901 14.8668 2.33538 15.0528C2.90177 15.2513 3.59118 15.3502 4.40364 15.3496C5.15454 15.3491 5.83767 15.2492 6.45304 15.05C7.08071 14.8383 7.60984 14.5334 8.04043 14.1355C8.47102 13.7375 8.80306 13.2402 9.03657 12.6436C9.28237 12.0345 9.40502 11.3261 9.40449 10.5184C9.40399 9.73547 9.2866 9.04587 9.05233 8.44955C8.81806 7.85323 8.49768 7.35638 8.0912 6.95901C7.6847 6.54921 7.21673 6.23887 6.68727 6.02798C6.1578 5.81709 5.59764 5.71186 5.00676 5.71227C4.67439 5.7125 4.36666 5.73756 4.08357 5.78747C3.81278 5.83736 3.52356 5.92455 3.21589 6.04903L3.21471 3.6898C3.21451 3.37913 3.17742 3.13062 3.10344 2.94427C3.02946 2.74549 2.91857 2.59024 2.77078 2.4785C2.62299 2.36676 2.43829 2.29233 2.21669 2.2552C2.00739 2.21807 1.76734 2.1996 1.49652 2.19978C1.21339 2.19998 0.936437 2.22503 0.665652 2.27492ZM5.71266 12.2731C5.40516 12.6585 4.96828 12.8515 4.40203 12.8518C4.1189 12.852 3.87884 12.8274 3.68185 12.7778C3.49716 12.7158 3.33708 12.6413 3.20162 12.5544L3.199 8.4909C3.4082 8.39134 3.59896 8.31665 3.77126 8.26682C3.95588 8.21698 4.17129 8.19198 4.41748 8.19181C4.95912 8.19143 5.39009 8.38375 5.7104 8.76875C6.0307 9.15376 6.19111 9.7377 6.19161 10.5206C6.19211 11.291 6.03246 11.8752 5.71266 12.2731ZM31.3977 15.42C30.6367 15.4205 29.9273 15.3168 29.2694 15.109C28.6244 14.8881 28.0567 14.563 27.5663 14.1337C27.0888 13.7043 26.708 13.1643 26.4238 12.5135C26.1525 11.8627 26.0166 11.1011 26.0161 10.2288C26.0155 9.36945 26.1505 8.63373 26.4209 8.02161C26.7042 7.39646 27.0715 6.88842 27.5227 6.49751C27.9738 6.09358 28.4895 5.80028 29.0698 5.61759C29.6501 5.42189 30.2433 5.32383 30.8495 5.32341C31.533 5.32293 32.1522 5.42666 32.7069 5.63459C33.2745 5.84252 33.7584 6.12862 34.1584 6.4929C34.5714 6.85717 34.8876 7.29312 35.1072 7.80074C35.3397 8.30836 35.4561 8.86162 35.4565 9.46054C35.4568 9.90322 35.3345 10.2418 35.0896 10.4763C34.8447 10.7109 34.503 10.8608 34.0645 10.9262L29.2865 11.6522C29.4286 12.0817 29.719 12.407 30.1577 12.6281C30.5964 12.8361 31.0994 12.9399 31.6669 12.9395C32.1957 12.9391 32.6922 12.8737 33.1565 12.7432C33.6336 12.5996 34.0204 12.4366 34.3169 12.2541C34.5233 12.3842 34.6976 12.5663 34.8396 12.8006C34.9816 13.0348 35.0527 13.2822 35.0529 13.5426C35.0533 14.1285 34.7827 14.5648 34.2412 14.8516C33.8286 15.0733 33.3644 15.2233 32.8486 15.3018C32.3327 15.3803 31.8491 15.4197 31.3977 15.42ZM30.851 7.74511C30.5415 7.74533 30.2707 7.79759 30.0386 7.90192C29.8194 8.00623 29.6389 8.14306 29.4972 8.31242C29.3554 8.46876 29.2459 8.65111 29.1686 8.85948C29.1043 9.05483 29.0657 9.25666 29.0529 9.46499L32.3608 8.91585C32.3219 8.65548 32.1799 8.39518 31.9347 8.13496C31.6894 7.87473 31.3282 7.74478 30.851 7.74511ZM15.3973 5.76357C15.5262 5.72442 15.7261 5.68522 15.9969 5.64598C16.2806 5.60672 16.5708 5.58699 16.8675 5.58678C17.1512 5.58658 17.4027 5.60594 17.622 5.64485C17.8542 5.68374 18.0477 5.76173 18.2025 5.8788C18.3574 5.99587 18.4736 6.15854 18.5511 6.36681C18.6415 6.56204 18.6868 6.82241 18.687 7.14791L18.6897 11.3468C18.6901 11.8806 18.8193 12.2646 19.0774 12.4988C19.3355 12.72 19.7096 12.8304 20.1997 12.83C20.4963 12.8298 20.7349 12.8036 20.9155 12.7514C20.9668 12.7376 21.0149 12.7237 21.0599 12.7099C20.6677 13.1573 20.4718 13.6997 20.4722 14.3371C20.4725 14.7327 20.5483 15.0916 20.6997 15.4138C20.5305 15.4228 20.3579 15.4274 20.182 15.4275C19.4856 15.428 18.8406 15.3504 18.2472 15.1945C17.6668 15.0387 17.1636 14.7982 16.7378 14.473C16.3119 14.1478 15.9828 13.7314 15.7503 13.2237C15.5178 12.7031 15.4013 12.0782 15.4009 11.3491L15.3973 5.76357ZM22.9237 11.939C22.3031 11.9394 21.7819 12.1027 21.3602 12.4289L21.3559 5.75943C21.4849 5.72028 21.6847 5.68108 21.9556 5.64183C22.2393 5.60258 22.5295 5.58284 22.8261 5.58264C23.1099 5.58244 23.3614 5.6018 23.5807 5.6407C23.8128 5.6796 24.0063 5.75759 24.1612 5.87466C24.316 5.99173 24.4322 6.1544 24.5097 6.36266C24.6001 6.5579 24.6455 6.81826 24.6457 7.14376L24.6492 12.587C24.214 12.1545 23.6389 11.9385 22.9237 11.939ZM21.6322 13.1247C21.31 13.4634 21.149 13.8801 21.1494 14.3749C21.1497 14.8697 21.3112 15.2862 21.6338 15.6245C21.9694 15.9628 22.408 16.1317 22.9497 16.1313C23.4914 16.131 23.9233 15.9614 24.2456 15.6227C24.5807 15.2839 24.7481 14.8672 24.7478 14.3724C24.7474 13.8777 24.5795 13.4611 24.244 13.1228C23.9213 12.7846 23.4891 12.6156 22.9474 12.616C22.4057 12.6163 21.9673 12.7859 21.6322 13.1247ZM23.9625 26.5791C24.2462 26.5399 24.459 26.5072 24.6008 26.481L24.5957 18.5324C24.5955 18.2069 24.5502 17.9465 24.4598 17.7513C24.3822 17.543 24.266 17.3803 24.1112 17.2633C23.9564 17.1462 23.7628 17.0682 23.5307 17.0293C23.3114 16.9904 23.0599 16.9711 22.7761 16.9712C22.4924 16.9714 22.2087 16.9977 21.9249 17.05C21.6541 17.0892 21.4478 17.1219 21.3059 17.148L21.3111 25.0967C21.3113 25.4222 21.3501 25.6891 21.4277 25.8973C21.5181 26.0926 21.6407 26.2487 21.7956 26.3658C21.9504 26.4829 22.1375 26.5609 22.3567 26.5998C22.5889 26.6387 22.8469 26.658 23.1306 26.6578C23.4144 26.6576 23.6917 26.6314 23.9625 26.5791ZM19.1654 26.602C19.4491 26.5627 19.6554 26.5235 19.7844 26.4844L19.7805 20.5668C19.7797 19.2909 19.418 18.3342 18.6953 17.6967C17.9855 17.0462 16.9922 16.7214 15.7153 16.7222C15.3026 16.7225 14.9222 16.7684 14.574 16.8597C14.2387 16.9381 13.9873 17.0099 13.8196 17.0751L13.8184 15.1612C13.8182 14.8357 13.7729 14.5753 13.6825 14.3801C13.6049 14.1718 13.4888 14.0091 13.3339 13.8921C13.1791 13.775 12.9856 13.697 12.7534 13.6581C12.5341 13.6192 12.2826 13.5998 11.9988 13.6C11.7151 13.6002 11.4314 13.6265 11.1477 13.6787C10.8768 13.718 10.6705 13.7507 10.5286 13.7768L10.536 25.1042C10.5362 25.4296 10.5751 25.6965 10.6526 25.9048C10.743 26.1 10.8656 26.2562 11.0205 26.3733C11.1753 26.4903 11.3624 26.5683 11.5817 26.6072C11.8138 26.6461 12.0718 26.6655 12.3555 26.6653C12.6522 26.6651 12.9359 26.6454 13.2067 26.6061C13.4905 26.5668 13.6968 26.5276 13.8257 26.4885L13.8213 19.653C13.9631 19.5618 14.1501 19.4836 14.3822 19.4183C14.6143 19.353 14.8593 19.3203 15.1173 19.3201C15.5042 19.3199 15.8267 19.4303 16.0848 19.6515C16.3558 19.8596 16.4915 20.2306 16.4918 20.7644L16.4946 25.1C16.4948 25.4255 16.5337 25.6924 16.6112 25.9007C16.7016 26.0959 16.8243 26.2521 16.9791 26.3691C17.1339 26.4862 17.321 26.5642 17.5403 26.6031C17.7725 26.642 18.0304 26.6614 18.3142 26.6612C18.6108 26.661 18.8946 26.6412 19.1654 26.602ZM30.4221 16.7121C31.196 16.7115 31.9118 16.8152 32.5697 17.0231C33.2405 17.2179 33.8147 17.5235 34.2921 17.9398C34.7696 18.3561 35.144 18.8831 35.4153 19.5209C35.6865 20.1457 35.8224 20.8942 35.823 21.7666C35.8235 22.5998 35.7079 23.329 35.4762 23.9542C35.2444 24.5793 34.9159 25.1068 34.4905 25.5368C34.0652 25.9537 33.5495 26.2665 32.9434 26.4753C32.3503 26.684 31.6861 26.7886 30.951 26.7891C30.3964 26.7895 29.8804 26.7052 29.4031 26.5363L29.4052 29.7783C29.2763 29.8174 29.0699 29.8566 28.7862 29.8959C28.5025 29.9482 28.2123 29.9744 27.9157 29.9746C27.6319 29.9748 27.374 29.9554 27.1418 29.9165C26.9225 29.8776 26.7354 29.7996 26.5806 29.6826C26.4258 29.5655 26.3096 29.4028 26.2321 29.1946C26.1545 28.9993 26.1157 28.7389 26.1155 28.4135L26.1094 19.0391C26.1092 18.6876 26.1799 18.4011 26.3217 18.1796C26.4763 17.9582 26.6825 17.7563 26.9403 17.5738C27.34 17.3131 27.8364 17.1045 28.4296 16.9478C29.0228 16.7912 29.6869 16.7126 30.4221 16.7121ZM30.4656 24.1725C31.7941 24.1715 32.4578 23.3704 32.4567 21.7689C32.4562 20.9356 32.2881 20.3173 31.9525 19.9139C31.6298 19.5105 31.1589 19.309 30.5399 19.3095C30.2948 19.3096 30.0756 19.3423 29.8822 19.4076C29.6887 19.4598 29.5211 19.525 29.3793 19.6032L29.3821 23.8998C29.5369 23.9778 29.7046 24.0428 29.8852 24.0947C30.0658 24.1467 30.2593 24.1726 30.4656 24.1725ZM6.78777 19.2939C6.46824 19.2941 5.39608 19.346 5.10217 19.4494C4.82104 19.5528 4.42466 19.7078 4.20751 19.9144C4.00313 20.1081 3.76352 20.3534 3.63589 20.6502C3.50827 20.9471 3.44459 21.2955 3.44485 21.6955C3.44536 22.4955 3.74304 23.0953 4.19065 23.495C4.65105 23.8947 6.11983 24.0943 6.77169 24.0938C7.15514 24.0935 7.48743 24.0482 7.76857 23.9576C8.04971 23.8671 8.29888 23.7702 8.51611 23.6668C8.77185 23.8473 8.96371 24.0471 9.09167 24.2664C9.21962 24.4727 9.28369 24.7243 9.28388 25.0211C9.28422 25.5501 9.03524 25.9632 8.53695 26.2603C8.03865 26.5445 7.34854 26.6869 5.70118 26.6875C4.89594 26.6881 3.94647 26.5725 3.29446 26.3407C2.64244 26.096 2.00622 25.7609 1.53302 25.3354C1.0726 24.897 0.640773 24.3747 0.38475 23.7684C0.128727 23.1622 0.000475972 22.4913 1.68455e-06 21.7559C-0.00054749 20.9043 0.133179 20.1623 0.401185 19.5298C0.681964 18.8845 1.1323 18.3552 1.60495 17.942C2.0776 17.5288 2.69424 17.2187 3.30762 17.0118C3.93378 16.8049 4.81281 16.7013 5.50302 16.7008C7.18872 16.7001 7.89821 16.8674 8.39691 17.2025C8.89561 17.5376 9.14512 17.9697 9.14546 18.4987C9.14562 18.7439 9.08825 18.9762 8.97336 19.1956C8.85846 19.4021 8.72437 19.5829 8.5711 19.7378C8.35374 19.6348 8.09165 19.5382 7.78484 19.4481C7.47801 19.345 7.14566 19.2937 6.78777 19.2939Z" fill="white"/>
<path fill-rule="evenodd" clip-rule="evenodd" d="M36.5725 3.89215C36.5722 3.88471 36.5721 3.87735 36.5715 3.86984C36.5722 3.86684 36.5714 3.86365 36.5711 3.86034C36.553 3.53584 36.4241 3.22889 36.2077 2.99526L36.1855 2.97202L36.1837 2.9715C36.1783 2.96709 36.1728 2.96258 36.167 2.95862C36.141 2.94081 36.1113 2.92991 36.0804 2.92689C36.0494 2.92385 36.0182 2.9288 35.9896 2.94126L35.9699 2.95103C35.635 3.1182 35.3286 3.34151 35.0628 3.61213C34.7899 3.44855 34.5401 3.24644 34.3202 3.01149C34.2514 2.9379 34.1853 2.86127 34.1231 2.78017L34.121 2.7796L34.1187 2.77453C33.9357 2.40234 33.8173 1.99921 33.7691 1.58386C33.8811 1.47046 33.9809 1.3446 34.0667 1.2085C34.1648 1.05357 34.2435 0.886115 34.3008 0.710274C34.3013 0.709127 34.3016 0.707933 34.3017 0.706711C34.3064 0.69276 34.3109 0.678734 34.3151 0.664636C34.3227 0.633314 34.3256 0.600936 34.3237 0.56868C34.3194 0.490375 34.2877 0.416439 34.2347 0.360867C34.2212 0.346489 34.2063 0.333574 34.1903 0.322317C34.1443 0.30328 34.098 0.285336 34.0513 0.268141C33.99 0.244728 33.9281 0.222911 33.8656 0.202689C33.865 0.202224 33.8643 0.202016 33.8635 0.202102C33.7043 0.149129 33.5419 0.103692 33.3764 0.0657904L33.3743 0.0652017C33.3095 0.050396 33.2443 0.0367524 33.1787 0.0242709C33.132 0.0156085 33.0851 0.0074946 33.0384 0C33.0185 0.00138768 32.9988 0.00482052 32.9795 0.0102489C32.9069 0.0305193 32.8438 0.0779909 32.8025 0.14363C32.7854 0.170547 32.7724 0.200101 32.764 0.231218C32.7605 0.244915 32.757 0.258612 32.7557 0.272348C32.7557 0.272348 32.7557 0.27235 32.7552 0.274269C32.7205 0.457899 32.7082 0.6454 32.7189 0.832252C32.728 0.994685 32.7541 1.1556 32.7968 1.3121C32.5563 1.64658 32.2609 1.93384 31.9242 2.1605L31.9198 2.16338L31.9177 2.16279C31.8241 2.19884 31.7315 2.23106 31.6367 2.25857C31.3339 2.34737 31.0208 2.39206 30.7063 2.39137C30.6056 2.01808 30.4469 1.66453 30.2367 1.34479C30.234 1.3402 30.2314 1.33596 30.2285 1.33192C30.2099 1.30428 30.1848 1.28207 30.1557 1.26739C30.1265 1.25271 30.0943 1.24604 30.0619 1.24803L30.0464 1.24954L30.0437 1.24881C30.032 1.2517 30.0205 1.25493 30.0089 1.25845C30.0068 1.25891 30.0048 1.25961 30.0028 1.26053C29.7902 1.32498 29.5969 1.44517 29.4414 1.60965C29.3812 1.67362 29.3271 1.74354 29.2798 1.81843C29.2791 1.82145 29.2765 1.82394 29.2749 1.82673C29.2744 1.82766 29.2742 1.8287 29.2741 1.82975C29.2707 1.83527 29.2675 1.84022 29.2644 1.84582C29.2596 1.85685 29.2574 1.86895 29.2582 1.88107C29.2582 1.8833 29.2585 1.88556 29.259 1.88776C29.2601 1.89307 29.2616 1.89846 29.263 1.90385C29.2776 1.96079 29.2945 2.0171 29.3136 2.07274C29.3894 2.2998 29.5003 2.51235 29.6419 2.70194C29.7232 2.80871 29.8137 2.90737 29.9124 2.99666C29.9843 3.54303 29.9336 4.0994 29.7642 4.62177C29.7635 4.6241 29.7629 4.62649 29.7624 4.6289C29.7611 4.63383 29.7607 4.63897 29.761 4.64407C29.762 4.65632 29.7676 4.66768 29.7765 4.67567C29.7855 4.68368 29.7971 4.68767 29.8088 4.68681L29.8112 4.68746L29.8187 4.68574C30.0868 4.62419 30.3589 4.58375 30.6328 4.56473C30.6498 4.56303 30.6666 4.56215 30.6835 4.561C31.8876 4.48527 33.082 4.82546 34.0825 5.52909C34.3116 5.69007 34.5289 5.86865 34.7327 6.06336L34.7385 6.06793C34.7483 6.07481 34.7603 6.07741 34.7718 6.07516C34.7834 6.0729 34.7937 6.06598 34.8004 6.05589C34.8031 6.05174 34.8051 6.04716 34.8064 6.0423C34.8071 6.03997 34.8078 6.03758 34.8082 6.03517C34.9116 5.49436 35.134 4.98604 35.4577 4.55036C35.5861 4.52471 35.7118 4.48644 35.8332 4.43607C36.0472 4.34763 36.2457 4.22307 36.421 4.06733C36.4643 4.02895 36.5058 3.98888 36.5461 3.947C36.5474 3.94582 36.5487 3.94452 36.5499 3.94309L36.5561 3.9363C36.5564 3.93582 36.5566 3.93525 36.5565 3.93466C36.5581 3.93284 36.5595 3.93087 36.5608 3.92883C36.5676 3.91784 36.5717 3.9052 36.5725 3.89215ZM33.3849 1.04387L33.3856 1.04114C33.3856 1.04114 33.3855 1.04284 33.3849 1.04387Z" fill="#FF0960"/>
<path opacity="0.4" fill-rule="evenodd" clip-rule="evenodd" d="M45.529 6L45.529 24L44.7826 24L44.7826 6L45.529 6Z" fill="white"/>
<path d="M56.4291 16.6905L55.0498 17.667C55.2901 18.171 55.614 18.6383 56.0216 19.0688C56.4395 19.4993 56.9202 19.8458 57.4636 20.1083C58.0174 20.3603 58.613 20.4863 59.2504 20.4863C59.7206 20.4863 60.1699 20.4075 60.5983 20.25C61.0372 20.103 61.4291 19.893 61.7739 19.62C62.1187 19.3365 62.3904 18.99 62.5889 18.5805C62.7979 18.171 62.9024 17.709 62.9024 17.1945C62.9024 16.7115 62.8188 16.2915 62.6516 15.9345C62.4844 15.567 62.265 15.252 61.9933 14.9895C61.7321 14.727 61.4343 14.5065 61.0999 14.328C60.776 14.1495 60.4468 14.0025 60.1124 13.887C59.5273 13.677 59.0518 13.4723 58.6861 13.2728C58.3204 13.0733 58.0487 12.8633 57.8711 12.6428C57.7039 12.4118 57.6203 12.1545 57.6203 11.871C57.6203 11.556 57.7405 11.283 57.9808 11.052C58.2211 10.8105 58.5973 10.6898 59.1093 10.6898C59.475 10.6898 59.7937 10.7633 60.0654 10.9103C60.3476 11.0468 60.5931 11.2358 60.8021 11.4773C61.0111 11.7083 61.1887 11.9603 61.335 12.2333L62.824 11.3828C62.6464 10.9943 62.3904 10.6215 62.056 10.2645C61.7216 9.90751 61.3141 9.61351 60.8334 9.38251C60.3528 9.14101 59.7885 9.02026 59.1407 9.02026C58.4824 9.02026 57.892 9.14626 57.3695 9.39826C56.8575 9.65026 56.45 10.002 56.1469 10.4535C55.8439 10.8945 55.6924 11.409 55.6924 11.997C55.6924 12.5115 55.7917 12.9525 55.9902 13.32C56.1887 13.677 56.4395 13.9815 56.7426 14.2335C57.0456 14.475 57.3643 14.6798 57.6987 14.8478C58.033 15.0053 58.3361 15.1313 58.6078 15.2258C59.0675 15.3938 59.475 15.567 59.8303 15.7455C60.1856 15.9135 60.4573 16.1235 60.6454 16.3755C60.8439 16.617 60.9432 16.9373 60.9432 17.3363C60.9432 17.7773 60.7864 18.1343 60.4729 18.4073C60.1595 18.6803 59.7519 18.8168 59.2504 18.8168C58.8429 18.8168 58.4667 18.7275 58.1219 18.549C57.7875 18.3705 57.4792 18.1238 57.1971 17.8088C56.9254 17.4938 56.6694 17.121 56.4291 16.6905Z" fill="white"/>
<path d="M64.7849 9.22501V20.25H66.6344V9.22501H64.7849ZM65.882 10.863H68.0921C68.7295 10.863 69.2415 11.0153 69.6281 11.3198C70.0147 11.6138 70.208 12.0548 70.208 12.6428C70.208 13.2308 70.0147 13.677 69.6281 13.9815C69.2415 14.286 68.7295 14.4383 68.0921 14.4383H65.882V16.0763H68.0921C68.8967 16.0763 69.5915 15.9398 70.1767 15.6668C70.7618 15.3833 71.2164 14.9843 71.5403 14.4698C71.8747 13.9553 72.0419 13.3463 72.0419 12.6428C72.0419 11.9393 71.8747 11.3355 71.5403 10.8315C71.2164 10.317 70.7618 9.92326 70.1767 9.65026C69.5915 9.36676 68.8967 9.22501 68.0921 9.22501H65.882V10.863Z" fill="white"/>
<path d="M75.1786 14.7375C75.1786 13.9815 75.3406 13.3095 75.6645 12.7215C75.9884 12.123 76.4273 11.6558 76.9811 11.3198C77.5454 10.9838 78.188 10.8158 78.909 10.8158C79.6509 10.8158 80.2988 10.9838 80.8526 11.3198C81.4168 11.6558 81.8557 12.123 82.1692 12.7215C82.4827 13.3095 82.6394 13.9815 82.6394 14.7375C82.6394 15.4935 82.4774 16.1655 82.1535 16.7535C81.84 17.3415 81.4012 17.8088 80.8369 18.1553C80.2831 18.4913 79.6405 18.6593 78.909 18.6593C78.188 18.6593 77.5454 18.4913 76.9811 18.1553C76.4273 17.8088 75.9884 17.3415 75.6645 16.7535C75.3406 16.1655 75.1786 15.4935 75.1786 14.7375ZM73.2194 14.7375C73.2194 15.5565 73.3605 16.3178 73.6426 17.0213C73.9247 17.7248 74.3218 18.3338 74.8338 18.8483C75.3458 19.3628 75.9466 19.767 76.6363 20.061C77.3364 20.3445 78.094 20.4863 78.909 20.4863C79.745 20.4863 80.5078 20.3445 81.1974 20.061C81.8871 19.767 82.4879 19.3628 82.9999 18.8483C83.5119 18.3338 83.909 17.7248 84.1911 17.0213C84.4733 16.3178 84.6143 15.5565 84.6143 14.7375C84.6143 13.908 84.4733 13.1468 84.1911 12.4538C83.909 11.7608 83.5067 11.1623 82.9842 10.6583C82.4722 10.1438 81.8714 9.74476 81.1817 9.46126C80.4921 9.16726 79.7345 9.02026 78.909 9.02026C78.1044 9.02026 77.3521 9.16726 76.652 9.46126C75.9623 9.74476 75.3563 10.1438 74.8338 10.6583C74.3218 11.1623 73.9247 11.7608 73.6426 12.4538C73.3605 13.1468 73.2194 13.908 73.2194 14.7375Z" fill="white"/>
<path d="M88.701 14.9895L92.1807 20.25H94.422L90.6916 14.9895H88.701ZM86.4283 9.22501V20.25H88.2779V9.22501H86.4283ZM87.5255 10.8315H89.7355C90.1639 10.8315 90.5349 10.905 90.8484 11.052C91.1619 11.199 91.4074 11.409 91.5851 11.682C91.7627 11.955 91.8515 12.291 91.8515 12.69C91.8515 13.0785 91.7627 13.4145 91.5851 13.698C91.4074 13.971 91.1619 14.181 90.8484 14.328C90.5349 14.4645 90.1639 14.5328 89.7355 14.5328H87.5255V16.0763H89.8139C90.6185 16.0763 91.3134 15.9345 91.8985 15.651C92.4837 15.3675 92.9382 14.9685 93.2622 14.454C93.5965 13.9395 93.7637 13.3358 93.7637 12.6428C93.7637 11.9498 93.5965 11.3513 93.2622 10.8473C92.9382 10.3328 92.4837 9.93376 91.8985 9.65026C91.3134 9.36676 90.6185 9.22501 89.8139 9.22501H87.5255V10.8315Z" fill="white"/>
<path d="M94.6529 10.9418H97.5525V20.25H99.402V10.9418H102.302V9.22501H94.6529V10.9418Z" fill="white"/>
</svg>
