<svg width="16" height="16" viewBox="0 0 16 16" fill="none" xmlns="http://www.w3.org/2000/svg">
<path d="M6.5 11C4.01472 11 2 8.98528 2 6.5H0.5C0.5 9.81371 3.18629 12.5 6.5 12.5V11ZM2 6.5C2 4.01472 4.01472 2 6.5 2V0.5C3.18629 0.5 0.5 3.18629 0.5 6.5H2ZM6.5 2C8.98528 2 11 4.01472 11 6.5H12.5C12.5 3.18629 9.81371 0.5 6.5 0.5V2ZM11 6.5C11 8.98528 8.98528 11 6.5 11V12.5C9.81371 12.5 12.5 9.81371 12.5 6.5H11ZM9.71967 10.7803L14.2197 15.2803L15.2803 14.2197L10.7803 9.71967L9.71967 10.7803Z" fill="white"/>
</svg>
