<svg width="13" height="10" viewBox="0 0 13 10" fill="none" xmlns="http://www.w3.org/2000/svg">
<path fill-rule="evenodd" clip-rule="evenodd" d="M0.640097 8.21271C0.492374 8.05952 0.457802 7.82962 0.553939 7.63976L1.02161 6.71618C2.12845 4.5303 4.37042 3.15253 6.82056 3.15254H7.05049C7.06726 2.78828 7.0889 2.4242 7.11543 2.06038L7.16065 1.43995C7.19743 0.935407 7.76002 0.653362 8.18631 0.92575C9.58475 1.81932 10.8005 2.97072 11.7687 4.31856L12.0728 4.74185C12.198 4.91616 12.198 5.15095 12.0728 5.32527L11.7687 5.74856C10.8005 7.0964 9.58475 8.24779 8.18631 9.14136C7.76001 9.41375 7.19743 9.13171 7.16065 8.62716L7.11543 8.00673C7.08375 7.57226 7.05903 7.1374 7.04127 6.70232C5.60805 6.66095 4.17658 6.95022 2.861 7.55741L1.20954 8.31962C1.01632 8.40879 0.787819 8.3659 0.640097 8.21271ZM2.11893 6.79853L2.44194 6.64945C4.04937 5.90757 5.81305 5.59436 7.56314 5.72877C7.81801 5.74835 8.01707 5.95702 8.02463 6.21253C8.0416 6.78677 8.07099 7.36074 8.11278 7.93403L8.1164 7.98367C9.21204 7.20923 10.1722 6.25697 10.9565 5.16514L11.051 5.03356L10.9565 4.90198C10.1722 3.81014 9.21204 2.85789 8.1164 2.08344L8.11278 2.13308C8.07548 2.64482 8.04806 3.1571 8.03052 3.66963C8.02131 3.93896 7.80031 4.15254 7.53082 4.15254L6.82056 4.15254C4.88901 4.15253 3.11037 5.16447 2.11893 6.79853Z" fill="white"/>
</svg>
