<svg width="38" height="38" viewBox="0 0 38 38" fill="none" xmlns="http://www.w3.org/2000/svg">
<rect width="38" height="38" rx="19" fill="#41A8AE" fill-opacity="0.1"/>
<path d="M19 9.00098C13.486 9.00098 9 13.487 9 19.001C9 24.5149 13.486 29.001 19 29.001C24.514 29.001 29 24.5149 29 19.001C29 13.487 24.514 9.00098 19 9.00098ZM19 10.501C19.3167 10.501 19.628 10.5211 19.9355 10.5547C20.1415 12.4731 20.9805 14.251 22.3652 15.6357C23.7464 17.0169 25.5276 17.8626 27.4473 18.0703C27.4805 18.3763 27.5 18.686 27.5 19.001C27.5 19.1953 27.4835 19.3851 27.4707 19.5762C25.1416 19.3669 22.9738 18.3654 21.3047 16.6963C19.63 15.0216 18.6378 12.8583 18.4316 10.5293C18.6204 10.5168 18.808 10.501 19 10.501ZM10.5391 18.2285C12.9343 18.4005 15.1627 19.4049 16.8789 21.1211C18.5899 22.8321 19.5969 25.0677 19.7705 27.4619C19.5162 27.4847 19.2603 27.501 19 27.501C18.7529 27.501 18.5102 27.4844 18.2686 27.4639C18.0989 25.469 17.247 23.6107 15.8184 22.1816C14.3852 20.7485 12.532 19.8959 10.5371 19.7275C10.5168 19.4874 10.5 19.2464 10.5 19.001C10.5 18.74 10.5162 18.4834 10.5391 18.2285Z" fill="#41A8AE"/>
</svg>
