<svg width="30" height="30" viewBox="0 0 30 30" fill="none" xmlns="http://www.w3.org/2000/svg">
<path d="M29.4167 17.6447C29.046 17.4401 28.5756 17.4851 28.1261 17.7681L19.822 22.9972C19.5909 23.1427 19.5215 23.448 19.6671 23.6791C19.8126 23.9102 20.1179 23.9796 20.349 23.8341L28.6531 18.6049C28.8285 18.4945 28.9245 18.5026 28.9387 18.5105C28.953 18.5184 29.0109 18.5953 29.0109 18.8025C29.0109 19.3596 28.5975 20.1086 28.1261 20.4054L20.0757 25.4747C19.6477 25.7442 19.2564 25.8183 19.0021 25.678C18.7478 25.5376 18.602 25.167 18.602 24.6611C18.602 23.3795 19.5182 21.7198 20.6028 21.037L29.769 15.265C29.9128 15.1745 30 15.0165 30 14.8466C30 14.6766 29.9128 14.5186 29.769 14.4281L12.156 3.33716C11.995 3.23576 11.79 3.23576 11.629 3.33716L2.35118 9.17938C1.03278 10.0096 0 11.8803 0 13.4383V13.7021C0 15.2601 1.03278 17.1309 2.35118 17.961L16.1505 26.6505C16.3816 26.796 16.6869 26.7266 16.8325 26.4955C16.978 26.2644 16.9086 25.9591 16.6775 25.8136L2.87819 17.1242C1.85411 16.4794 0.989 14.9122 0.989 13.7021V13.4383C0.989 12.2282 1.85411 10.6611 2.87819 10.0163L11.8925 4.34001L28.5775 14.8465L20.0758 20.2C18.6948 21.0696 17.613 23.0291 17.613 24.6611C17.613 25.5509 17.9366 26.2195 18.5241 26.5439C18.7601 26.6741 19.0203 26.7388 19.2961 26.7388C19.7069 26.7388 20.1523 26.5953 20.6027 26.3116L28.6531 21.2423C29.4084 20.7667 29.9999 19.695 29.9999 18.8025C29.9999 18.2713 29.7874 17.8494 29.4167 17.6447Z" fill="black"/>
<path d="M23.3183 15.341C23.4826 15.341 23.6432 15.2592 23.7372 15.11C23.8827 14.8789 23.8134 14.5736 23.5823 14.4281L12.156 7.23302C11.9248 7.0875 11.6196 7.15693 11.4741 7.38796C11.3285 7.61906 11.3979 7.92439 11.629 8.06991L23.0553 15.2649C23.1371 15.3164 23.2282 15.341 23.3183 15.341Z" fill="black"/>
<path d="M21.3413 16.6534C21.5059 16.6534 21.6669 16.5713 21.7607 16.4215C21.9058 16.1902 21.8359 15.885 21.6044 15.7399L16.7774 12.7133C16.5459 12.5681 16.2408 12.6382 16.0958 12.8695C15.9507 13.1009 16.0206 13.4061 16.252 13.5511L21.0791 16.5778C21.1607 16.629 21.2515 16.6534 21.3413 16.6534Z" fill="black"/>
<path d="M14.7627 14.0147C14.5311 13.87 14.226 13.9406 14.0813 14.1722C13.9367 14.4039 14.0072 14.7089 14.2389 14.8536L19.103 17.8906C19.1845 17.9415 19.275 17.9657 19.3645 17.9657C19.5294 17.9657 19.6906 17.8832 19.7844 17.733C19.9291 17.5014 19.8585 17.1963 19.6268 17.0517L14.7627 14.0147Z" fill="black"/>
<path d="M9.57412 8.52712L5.46449 11.1153C5.32029 11.2061 5.233 11.3647 5.23352 11.5351C5.23405 11.7056 5.3222 11.8637 5.46693 11.9537L10.3681 15.0011C10.4481 15.0508 10.5386 15.0756 10.6292 15.0756C10.7226 15.0756 10.816 15.0492 10.8976 14.9964L11.9892 14.2909C12.2186 14.1427 12.2843 13.8366 12.1361 13.6072C11.9879 13.3778 11.6817 13.3122 11.4524 13.4603L10.6241 13.9956L6.66026 11.531L9.83825 9.52964L13.7444 11.9789L13.289 12.2732C13.0596 12.4215 12.9939 12.7275 13.1421 12.9569C13.2904 13.1863 13.5967 13.252 13.8258 13.1038L14.9335 12.3878C15.0755 12.2961 15.1607 12.1382 15.1596 11.9691C15.1584 11.8001 15.071 11.6434 14.9278 11.5536L10.1003 8.52666C9.93939 8.42571 9.73486 8.42591 9.57412 8.52712Z" fill="black"/>
<path d="M17.8078 19.0445C17.952 18.8125 17.881 18.5077 17.649 18.3635L12.7477 15.316C12.5158 15.1717 12.2108 15.2428 12.0667 15.4748C11.9225 15.7067 11.9936 16.0116 12.2255 16.1558L17.1268 19.2033C17.208 19.2539 17.2983 19.278 17.3874 19.278C17.5527 19.278 17.7142 19.1952 17.8078 19.0445Z" fill="black"/>
<path d="M3.52922 12.7162C3.38502 12.9481 3.4561 13.253 3.68805 13.3972L15.7854 20.9189C15.8666 20.9695 15.9569 20.9935 16.046 20.9935C16.2112 20.9935 16.3728 20.9107 16.4664 20.7601C16.6106 20.5281 16.5395 20.2232 16.3076 20.0791L4.21024 12.5573C3.97829 12.413 3.67341 12.4842 3.52922 12.7162Z" fill="black"/>
</svg>
